<svg width="145" height="16" viewBox="0 0 145 16" fill="none" xmlns="http://www.w3.org/2000/svg">
<path d="M15.9668 4.33203C15.9082 4.625 15.6738 5.10352 15.2637 5.76758C14.873 6.43164 14.5117 7.01758 14.1797 7.52539C13.8477 8.01367 13.6719 8.26758 13.6523 8.28711C13.5352 8.46289 13.4766 8.58984 13.4766 8.66797C13.4766 8.74609 13.5352 8.88281 13.6523 9.07812C13.6523 9.07812 13.7109 9.14648 13.8281 9.2832C13.9648 9.41992 14.1211 9.57617 14.2969 9.75195C14.4727 9.92773 14.668 10.1328 14.8828 10.3672C15.0977 10.6016 15.293 10.8359 15.4688 11.0703C15.6641 11.2852 15.8301 11.5098 15.9668 11.7441C16.123 11.9785 16.2305 12.1738 16.2891 12.3301C16.4258 12.8184 16.2305 13.0625 15.7031 13.0625H13.9746C13.8379 13.0625 13.7207 13.043 13.623 13.0039C13.5254 12.9648 13.418 12.8965 13.3008 12.7988C13.1836 12.7012 13.0762 12.5938 12.9785 12.4766C12.8809 12.3594 12.7344 12.1934 12.5391 11.9785C12.3438 11.7637 12.1484 11.5586 11.9531 11.3633C11.1719 10.6211 10.5957 10.25 10.2246 10.25C9.99023 10.25 9.85352 10.3184 9.81445 10.4551C9.77539 10.5918 9.75586 10.9824 9.75586 11.627C9.77539 11.9395 9.78516 12.1934 9.78516 12.3887C9.78516 12.623 9.70703 12.7988 9.55078 12.916C9.39453 13.0137 9.05273 13.0625 8.52539 13.0625C7.60742 13.0625 6.67969 12.7891 5.74219 12.2422C4.80469 11.6953 3.98438 10.9141 3.28125 9.89844C2.61719 9 2.06055 8.11133 1.61133 7.23242C1.18164 6.33398 0.898438 5.65039 0.761719 5.18164C0.625 4.71289 0.556641 4.38086 0.556641 4.18555C0.556641 3.85352 0.751953 3.6875 1.14258 3.6875H2.87109C3.08594 3.6875 3.24219 3.73633 3.33984 3.83398C3.45703 3.93164 3.55469 4.10742 3.63281 4.36133C4.04297 5.55273 4.54102 6.61719 5.12695 7.55469C5.73242 8.49219 6.19141 8.96094 6.50391 8.96094C6.62109 8.96094 6.69922 8.92188 6.73828 8.84375C6.79688 8.74609 6.82617 8.57031 6.82617 8.31641V5.76758C6.80664 5.49414 6.75781 5.25977 6.67969 5.06445C6.60156 4.86914 6.52344 4.73242 6.44531 4.6543C6.36719 4.55664 6.28906 4.45898 6.21094 4.36133C6.15234 4.26367 6.12305 4.17578 6.12305 4.09766C6.12305 4.01953 6.14258 3.95117 6.18164 3.89258C6.2207 3.83398 6.26953 3.78516 6.32812 3.74609C6.40625 3.70703 6.48438 3.6875 6.5625 3.6875H9.28711C9.59961 3.6875 9.75586 3.90234 9.75586 4.33203V7.73047C9.75586 8.0625 9.84375 8.22852 10.0195 8.22852C10.2148 8.22852 10.4883 8.05273 10.8398 7.70117C11.2109 7.29102 11.5723 6.79297 11.9238 6.20703C12.2754 5.62109 12.5391 5.13281 12.7148 4.74219L12.9785 4.18555C13.1152 3.85352 13.3594 3.6875 13.7109 3.6875H15.4395C15.9082 3.6875 16.084 3.90234 15.9668 4.33203ZM51.0645 6.00195C51.7285 5.33789 52.5293 5.00586 53.4668 5.00586C54.4043 5.00586 55.1953 5.33789 55.8398 6.00195C56.5039 6.64648 56.8359 7.4375 56.8359 8.375C56.8359 9.3125 56.5039 10.1133 55.8398 10.7773C55.1953 11.4219 54.4043 11.7441 53.4668 11.7441C52.5293 11.7441 51.7285 11.4219 51.0645 10.7773C50.4199 10.1133 50.0977 9.3125 50.0977 8.375C50.0977 7.4375 50.4199 6.64648 51.0645 6.00195ZM51.9141 9.92773C52.3438 10.3574 52.8613 10.5723 53.4668 10.5723C54.0723 10.5723 54.5898 10.3574 55.0195 9.92773C55.4492 9.49805 55.6641 8.98047 55.6641 8.375C55.6641 7.76953 55.4492 7.25195 55.0195 6.82227C54.5898 6.39258 54.0723 6.17773 53.4668 6.17773C52.8613 6.17773 52.3438 6.39258 51.9141 6.82227C51.4844 7.25195 51.2695 7.76953 51.2695 8.375C51.2695 8.98047 51.4844 9.49805 51.9141 9.92773ZM57.5098 4.33203C57.666 4.46875 57.7441 4.64453 57.7441 4.85938C57.7441 5.07422 57.666 5.25977 57.5098 5.41602C57.373 5.57227 57.1973 5.65039 56.9824 5.65039C56.7676 5.65039 56.582 5.57227 56.4258 5.41602C56.2695 5.25977 56.1914 5.07422 56.1914 4.85938C56.1914 4.64453 56.2695 4.46875 56.4258 4.33203C56.582 4.17578 56.7676 4.09766 56.9824 4.09766C57.1973 4.09766 57.373 4.17578 57.5098 4.33203ZM60 5.67969C60.0195 6.20703 60.0293 7.10547 60.0293 8.375C60.0293 9.64453 60.0195 10.543 60 11.0703C59.9414 12.2617 59.5801 13.1895 58.916 13.8535C58.2715 14.498 57.3535 14.8398 56.1621 14.8789C55.6348 14.918 54.7363 14.9375 53.4668 14.9375C52.1973 14.9375 51.2988 14.918 50.7715 14.8789C49.5801 14.8203 48.6621 14.4688 48.0176 13.8242C47.7637 13.5898 47.5586 13.3164 47.4023 13.0039C47.2461 12.6914 47.1289 12.3887 47.0508 12.0957C46.9922 11.8027 46.9629 11.4609 46.9629 11.0703C46.9238 10.543 46.9043 9.64453 46.9043 8.375C46.9043 7.10547 46.9238 6.19727 46.9629 5.65039C47.0215 4.47852 47.373 3.57031 48.0176 2.92578C48.6621 2.26172 49.5801 1.90039 50.7715 1.8418C51.2988 1.82227 52.1973 1.8125 53.4668 1.8125C54.7363 1.8125 55.6348 1.82227 56.1621 1.8418C57.3535 1.90039 58.2715 2.26172 58.916 2.92578C59.5801 3.57031 59.9414 4.48828 60 5.67969ZM58.5938 12.2422C58.6523 12.0859 58.7012 11.8906 58.7402 11.6562C58.7793 11.4023 58.8086 11.1094 58.8281 10.7773C58.8477 10.4258 58.8574 10.1426 58.8574 9.92773C58.8574 9.71289 58.8574 9.41016 58.8574 9.01953C58.8574 8.62891 58.8574 8.41406 58.8574 8.375C58.8574 8.31641 58.8574 8.10156 58.8574 7.73047C58.8574 7.33984 58.8574 7.03711 58.8574 6.82227C58.8574 6.60742 58.8477 6.33398 58.8281 6.00195C58.8086 5.65039 58.7793 5.35742 58.7402 5.12305C58.7012 4.86914 58.6523 4.66406 58.5938 4.50781C58.3594 3.90234 57.9395 3.48242 57.334 3.24805C57.1777 3.18945 56.9727 3.14062 56.7188 3.10156C56.4844 3.0625 56.1914 3.0332 55.8398 3.01367C55.5078 2.99414 55.2344 2.98438 55.0195 2.98438C54.8242 2.98438 54.5215 2.98438 54.1113 2.98438C53.7207 2.98438 53.5059 2.98438 53.4668 2.98438C53.4277 2.98438 53.2129 2.98438 52.8223 2.98438C52.4316 2.98438 52.1289 2.98438 51.9141 2.98438C51.6992 2.98438 51.416 2.99414 51.0645 3.01367C50.7324 3.0332 50.4395 3.0625 50.1855 3.10156C49.9512 3.14062 49.7559 3.18945 49.5996 3.24805C48.9941 3.48242 48.5742 3.90234 48.3398 4.50781C48.2812 4.66406 48.2324 4.86914 48.1934 5.12305C48.1543 5.35742 48.125 5.65039 48.1055 6.00195C48.0859 6.33398 48.0762 6.60742 48.0762 6.82227C48.0762 7.01758 48.0762 7.32031 48.0762 7.73047C48.0762 8.12109 48.0762 8.33594 48.0762 8.375C48.0762 8.45312 48.0762 8.63867 48.0762 8.93164C48.0762 9.20508 48.0762 9.43945 48.0762 9.63477C48.0762 9.81055 48.0762 10.0449 48.0762 10.3379C48.0957 10.6309 48.1152 10.8848 48.1348 11.0996C48.1543 11.2949 48.1836 11.5 48.2227 11.7148C48.2617 11.9297 48.3008 12.1055 48.3398 12.2422C48.5938 12.8477 49.0137 13.2676 49.5996 13.502C49.7559 13.5605 49.9512 13.6094 50.1855 13.6484C50.4395 13.6875 50.7324 13.7168 51.0645 13.7363C51.416 13.7559 51.6895 13.7656 51.8848 13.7656C52.0996 13.7656 52.4023 13.7656 52.793 13.7656C53.2031 13.7656 53.4277 13.7656 53.4668 13.7656C53.5254 13.7656 53.7402 13.7656 54.1113 13.7656C54.502 13.7656 54.8047 13.7656 55.0195 13.7656C55.2344 13.7656 55.5078 13.7559 55.8398 13.7363C56.1914 13.7168 56.4844 13.6875 56.7188 13.6484C56.9727 13.6094 57.1777 13.5605 57.334 13.502C57.9395 13.248 58.3594 12.8281 58.5938 12.2422ZM98.1738 9.3125H95.9766V15.875H93.0469V9.3125H90.6738V6.58789H93.0469V4.53711C93.0469 3.75586 93.1934 3.0918 93.4863 2.54492C93.7793 1.99805 94.1895 1.58789 94.7168 1.31445C95.2637 1.02148 95.8887 0.875 96.5918 0.875C96.9043 0.875 97.2363 0.894531 97.5879 0.933594C97.9395 0.953125 98.2129 0.982422 98.4082 1.02148L98.7012 1.05078V3.36523H97.5293C96.9824 3.36523 96.582 3.51172 96.3281 3.80469C96.0938 4.07812 95.9766 4.41992 95.9766 4.83008V6.58789H98.584L98.1738 9.3125ZM142.822 5.32812C142.842 5.40625 142.852 5.5332 142.852 5.70898C142.852 6.74414 142.656 7.7793 142.266 8.81445C141.875 9.83008 141.318 10.7676 140.596 11.627C139.893 12.4668 138.975 13.1504 137.842 13.6777C136.709 14.2051 135.459 14.4688 134.092 14.4688C132.373 14.4688 130.801 14.0098 129.375 13.0918C129.59 13.1113 129.834 13.1211 130.107 13.1211C131.533 13.1211 132.812 12.6816 133.945 11.8027C133.262 11.8027 132.656 11.6074 132.129 11.2168C131.621 10.8066 131.27 10.2988 131.074 9.69336C131.27 9.71289 131.455 9.72266 131.631 9.72266C131.904 9.72266 132.178 9.69336 132.451 9.63477C131.982 9.53711 131.562 9.3418 131.191 9.04883C130.82 8.75586 130.527 8.4043 130.312 7.99414C130.098 7.56445 129.99 7.10547 129.99 6.61719V6.55859C130.42 6.8125 130.879 6.94922 131.367 6.96875C130.449 6.34375 129.99 5.48438 129.99 4.39062C129.99 3.84375 130.137 3.32617 130.43 2.83789C131.191 3.79492 132.119 4.55664 133.213 5.12305C134.326 5.68945 135.508 6.00195 136.758 6.06055C136.719 5.82617 136.699 5.5918 136.699 5.35742C136.699 4.51758 136.992 3.79492 137.578 3.18945C138.184 2.58398 138.906 2.28125 139.746 2.28125C140.645 2.28125 141.396 2.60352 142.002 3.24805C142.705 3.11133 143.359 2.86719 143.965 2.51562C143.73 3.23828 143.281 3.80469 142.617 4.21484C143.203 4.13672 143.789 3.9707 144.375 3.7168C143.945 4.3418 143.428 4.87891 142.822 5.32812Z" fill="#6D7792"/>
</svg>
